# xmcd
#
# Track frame offsets:
#	150
#	13625
#	30962
#	41962
#	59511
#	73144
#	98046
#	114596
#	131359
#	149742
#	163736
#	178115
#
# Disc length: 2566 seconds
#
# Revision: 1
# Processed by: cddbd v1.5.1PL0 Copyright (c) Steve Scherf et al.
# Submitted via: audiograbber 1.83.01
#
DISCID=ad0a040c
DTITLE=Emmylou Harris - Elite Hotel
DYEAR=1900
DGENRE=Country
TTITLE0=Amarillo
TTITLE1=Together Again
TTITLE2=Feelin' Single Seeing Double
TTITLE3=Sin City
TTITLE4=One Of These Days
TTITLE5='Till I Gain Control Again
TTITLE6=Here There And Everywhere
TTITLE7=Oh Las Vegas
TTITLE8=Sweet Dreams
TTITLE9=Jambalaya
TTITLE10=Satan's Jewel Crown
TTITLE11=Wheels
EXTD=
EXTT0=
EXTT1=
EXTT2=
EXTT3=
EXTT4=
EXTT5=
EXTT6=
EXTT7=
EXTT8=
EXTT9=
EXTT10=
EXTT11=
PLAYORDER=
